<svg width="2072" height="1339" viewBox="0 0 2072 1339" fill="none" xmlns="http://www.w3.org/2000/svg">
<g clip-path="url(#clip0_2544_240)">
<path d="M0 412H415V1339H200C89.543 1339 0 1249.46 0 1139V412Z" fill="black"/>
<path d="M2072 715C2072 547.658 1936.34 412 1769 412H1660V1333H2072V715Z" fill="black"/>
<path d="M1445 9.31052e-06C1334.54 1.41387e-05 1245 89.5431 1245 200V412H1660V2.00001C1660 0.895436 1659.1 -4.83e-08 1658 0L1445 9.31052e-06Z" fill="black"/>
<path d="M830 412V824H1030C1148.74 824 1245 727.741 1245 609V412H830Z" fill="black"/>
<path d="M415 412V2.2419e-06L603 0C728.369 -1.495e-06 830 101.631 830 227V412H415Z" fill="black"/>
</g>
<defs>
<clipPath id="clip0_2544_240">
<rect width="2072" height="1339" fill="white"/>
</clipPath>
</defs>
</svg>
